<svg xmlns="http://www.w3.org/2000/svg" xmlns:xlink="http://www.w3.org/1999/xlink" viewBox="0 0 72.8 76.24"><defs><style>.cls-1{fill:url(#linear-gradient);}.cls-2{fill:url(#linear-gradient-2);}.cls-3{fill:url(#linear-gradient-3);}.cls-4{fill:url(#linear-gradient-4);}.cls-5{fill:url(#linear-gradient-5);}.cls-6{fill:url(#linear-gradient-6);}.cls-7{fill:url(#linear-gradient-7);}.cls-8{fill:url(#linear-gradient-8);}.cls-9{fill:url(#linear-gradient-9);}</style><linearGradient id="linear-gradient" x1="32.4" y1="38.87" x2="32.4" y2="38.87" gradientUnits="userSpaceOnUse"><stop offset="0" stop-color="#b018dc"/><stop offset="0.22" stop-color="#b617de"/><stop offset="0.5" stop-color="#c513e5"/><stop offset="0.82" stop-color="#df0cf1"/><stop offset="1" stop-color="#f208f9"/></linearGradient><linearGradient id="linear-gradient-2" x1="32.39" y1="38.87" x2="32.4" y2="38.87" xlink:href="#linear-gradient"/><linearGradient id="linear-gradient-3" x1="23.34" y1="35.83" x2="31.82" y2="35.66" xlink:href="#linear-gradient"/><linearGradient id="linear-gradient-4" x1="37.9" y1="35.74" x2="48.98" y2="35.74" xlink:href="#linear-gradient"/><linearGradient id="linear-gradient-5" x1="22.86" y1="44.43" x2="-15.6" y2="44.66" xlink:href="#linear-gradient"/><linearGradient id="linear-gradient-6" x1="65.29" y1="60.49" x2="12.4" y2="62.54" xlink:href="#linear-gradient"/><linearGradient id="linear-gradient-7" x1="35.11" y1="17.91" x2="7.62" y2="58.33" xlink:href="#linear-gradient"/><linearGradient id="linear-gradient-8" x1="69.46" y1="18.61" x2="12.14" y2="20.83" xlink:href="#linear-gradient"/><linearGradient id="linear-gradient-9" x1="63.44" y1="37.09" x2="13" y2="39.04" xlink:href="#linear-gradient"/></defs><g id="Layer_2" data-name="Layer 2"><g id="Layer_1-2" data-name="Layer 1"><polygon class="cls-1" points="32.4 38.87 32.4 38.87 32.4 38.87 32.4 38.87"/><polygon class="cls-2" points="32.39 38.87 32.4 38.87 32.39 38.87 32.39 38.87"/><ellipse class="cls-3" cx="27.72" cy="35.74" rx="5.54" ry="6.3"/><ellipse class="cls-4" cx="43.44" cy="35.74" rx="5.54" ry="6.3"/><path class="cls-5" d="M48.84,74.05a31.68,31.68,0,0,1-39.9-15.3,31.64,31.64,0,0,1,2.2-46.14,31.51,31.51,0,0,0-6.36,19A31.08,31.08,0,0,0,5.93,40.1a31.51,31.51,0,0,0,9.24,15A31.65,31.65,0,0,0,44.31,74.37,30.77,30.77,0,0,0,48.84,74.05Z"/><path class="cls-6" d="M72.8,52.77A37.85,37.85,0,0,1,51.05,73.65h0c-.72.16-1.45.29-2.2.4a30.77,30.77,0,0,1-4.53.32A31.65,31.65,0,0,1,15.17,55.09a31.66,31.66,0,0,0,41.26,1.08l.5-.42a31.88,31.88,0,0,0,6.91-8.29,12.92,12.92,0,0,1,4.76,1.46,11.27,11.27,0,0,1,2.46,1.79A12.21,12.21,0,0,1,72.8,52.77Z"/><path class="cls-7" d="M14.83,22.25A31.83,31.83,0,0,0,12.67,33.8a32.65,32.65,0,0,0,.3,4.46A31.67,31.67,0,0,0,32.07,63,31.65,31.65,0,0,1,5.93,40.1a31.08,31.08,0,0,1-1.15-8.46A31.67,31.67,0,0,1,48.66,2.45a32.76,32.76,0,0,0-4.35-.3,31.67,31.67,0,0,0-29.48,20.1Z"/><path class="cls-8" d="M69.41,17.23a10.94,10.94,0,0,1-2.7,3.14l-.55.41a16.39,16.39,0,0,1-5.58,2.43c-.2-.23-.41-.45-.62-.66a31.62,31.62,0,0,0-22.71-9.61,32.2,32.2,0,0,0-4.53.33A31.68,31.68,0,0,0,13,38.26a32.65,32.65,0,0,1-.3-4.46A31.63,31.63,0,0,1,44.31,2.15a32.76,32.76,0,0,1,4.35.3,28.79,28.79,0,0,1,3.63.73A37.88,37.88,0,0,1,69.41,17.23Z"/><path class="cls-9" d="M63.84,47.46a31.88,31.88,0,0,1-6.91,8.29l-.5.42A31.68,31.68,0,0,1,32.07,63,31.67,31.67,0,0,1,13,38.26a31.68,31.68,0,0,1,19.75-25,32.2,32.2,0,0,1,4.53-.33A31.62,31.62,0,0,1,60,22.55c.21.21.42.43.62.66a2.61,2.61,0,0,1-.27.06,31.09,31.09,0,0,1-6.86.76,21.06,21.06,0,1,0-3.2,30.46,21.12,21.12,0,0,0,5.55-6.38,25.13,25.13,0,0,1,5.66-.77A15.75,15.75,0,0,1,63.84,47.46Z"/></g></g></svg>