<svg xmlns="http://www.w3.org/2000/svg" xmlns:xlink="http://www.w3.org/1999/xlink" viewBox="0 0 386.7 86.19"><defs><style>.cls-1{fill:none;}.cls-2{fill:url(#linear-gradient);}.cls-3{fill:url(#linear-gradient-2);}.cls-4{fill:url(#linear-gradient-3);}.cls-5{fill:url(#linear-gradient-4);}.cls-6{fill:url(#linear-gradient-5);}.cls-7{fill:#7526c3;}.cls-8{fill:#ca00e0;}.cls-9{fill:url(#linear-gradient-6);}.cls-10{fill:url(#linear-gradient-7);}.cls-11{fill:url(#linear-gradient-8);}.cls-12{fill:url(#linear-gradient-9);}.cls-13{fill:url(#linear-gradient-10);}</style><linearGradient id="linear-gradient" x1="32.4" y1="38.87" x2="32.4" y2="38.87" gradientUnits="userSpaceOnUse"><stop offset="0" stop-color="#b018dc"/><stop offset="0.22" stop-color="#b617de"/><stop offset="0.5" stop-color="#c513e5"/><stop offset="0.82" stop-color="#df0cf1"/><stop offset="1" stop-color="#f208f9"/></linearGradient><linearGradient id="linear-gradient-2" x1="32.39" y1="38.87" x2="32.4" y2="38.87" xlink:href="#linear-gradient"/><linearGradient id="linear-gradient-3" x1="23.34" y1="35.83" x2="31.82" y2="35.66" xlink:href="#linear-gradient"/><linearGradient id="linear-gradient-4" x1="37.9" y1="35.74" x2="48.98" y2="35.74" xlink:href="#linear-gradient"/><linearGradient id="linear-gradient-5" x1="52.32" y1="35.83" x2="66.17" y2="35.66" xlink:href="#linear-gradient"/><linearGradient id="linear-gradient-6" x1="22.86" y1="44.43" x2="-15.6" y2="44.66" xlink:href="#linear-gradient"/><linearGradient id="linear-gradient-7" x1="65.29" y1="60.49" x2="12.4" y2="62.54" xlink:href="#linear-gradient"/><linearGradient id="linear-gradient-8" x1="35.11" y1="17.91" x2="7.62" y2="58.33" xlink:href="#linear-gradient"/><linearGradient id="linear-gradient-9" x1="69.46" y1="18.61" x2="12.14" y2="20.83" xlink:href="#linear-gradient"/><linearGradient id="linear-gradient-10" x1="63.44" y1="37.09" x2="13" y2="39.04" xlink:href="#linear-gradient"/></defs><g id="Layer_2" data-name="Layer 2"><g id="Layer_1-2" data-name="Layer 1"><line class="cls-1" x1="73.79" y1="21.15" x2="73.18" y2="20.34"/><polygon class="cls-2" points="32.4 38.87 32.4 38.87 32.4 38.87 32.4 38.87"/><polygon class="cls-3" points="32.39 38.87 32.4 38.87 32.39 38.87 32.39 38.87"/><ellipse class="cls-4" cx="27.72" cy="35.74" rx="5.54" ry="6.3"/><ellipse class="cls-5" cx="43.44" cy="35.74" rx="5.54" ry="6.3"/><ellipse class="cls-6" cx="59.16" cy="35.74" rx="5.54" ry="6.3"/><path class="cls-7" d="M109.52,30.36q3.66,4.68,3.67,12.84V65.73a1.47,1.47,0,0,1-1.47,1.47h-7.81a1.47,1.47,0,0,1-1.47-1.47V44.9a10,10,0,0,0-1.83-6.41,6.47,6.47,0,0,0-9.86,0,10,10,0,0,0-1.84,6.41V65.73a1.47,1.47,0,0,1-1.47,1.47H79.57a1.47,1.47,0,0,1-1.47-1.47V14.21a1.47,1.47,0,0,1,1.47-1.48h7.87a1.47,1.47,0,0,1,1.47,1.48V27.65a1.46,1.46,0,0,0,2.41,1.12,13.1,13.1,0,0,1,2.08-1.46,12.67,12.67,0,0,1,6.39-1.62A11.76,11.76,0,0,1,109.52,30.36Z"/><path class="cls-7" d="M120.61,35.48a17.21,17.21,0,0,1,5.6-7.36,13.09,13.09,0,0,1,7.9-2.58,12.05,12.05,0,0,1,6.55,1.77,12.51,12.51,0,0,1,1.86,1.42A1.47,1.47,0,0,0,145,27.65v0a1.47,1.47,0,0,1,1.47-1.47h7.86a1.47,1.47,0,0,1,1.48,1.47V65.73a1.47,1.47,0,0,1-1.48,1.47h-7.86A1.47,1.47,0,0,1,145,65.73v-.11a1.47,1.47,0,0,0-2.46-1.08A12.9,12.9,0,0,1,140.59,66a12,12,0,0,1-6.54,1.77,12.85,12.85,0,0,1-7.84-2.62,17.5,17.5,0,0,1-5.6-7.43,28.4,28.4,0,0,1-2-11.15A28.13,28.13,0,0,1,120.61,35.48Zm22.13,3.75a6.89,6.89,0,0,0-10.94,0,11.25,11.25,0,0,0-2.24,7.4,11.53,11.53,0,0,0,2.24,7.47,6.83,6.83,0,0,0,10.94,0A11.35,11.35,0,0,0,145,46.66,11.32,11.32,0,0,0,142.74,39.23Z"/><path class="cls-7" d="M183.29,58v7.73a1.47,1.47,0,0,1-1.47,1.47h-4q-5.86,0-9.16-3.35t-3.29-10.93V38.05a1.47,1.47,0,0,0-1.47-1.47h-1.36A1.47,1.47,0,0,1,161,35.11V27.6a1.47,1.47,0,0,1,1.47-1.47h1.36a1.47,1.47,0,0,0,1.47-1.47V17.59a1.47,1.47,0,0,1,1.47-1.47h7.87a1.47,1.47,0,0,1,1.47,1.47v7.07a1.47,1.47,0,0,0,1.47,1.47h4.14a1.47,1.47,0,0,1,1.47,1.47v7.51a1.47,1.47,0,0,1-1.47,1.47h-4.14a1.47,1.47,0,0,0-1.47,1.47v15a3.8,3.8,0,0,0,.76,2.65,3.35,3.35,0,0,0,2.53.81h2.38A1.47,1.47,0,0,1,183.29,58Z"/><path class="cls-8" d="M227.56,17.37v2.5a1.47,1.47,0,0,1-1.47,1.48H209.88a1.47,1.47,0,0,0-1.48,1.47V37.17a1.47,1.47,0,0,0,1.48,1.47h12.6A1.47,1.47,0,0,1,224,40.11v2.51a1.47,1.47,0,0,1-1.47,1.47h-12.6a1.47,1.47,0,0,0-1.48,1.47V65.73a1.47,1.47,0,0,1-1.47,1.47h-2.81a1.47,1.47,0,0,1-1.47-1.47V17.37a1.47,1.47,0,0,1,1.47-1.47h22A1.47,1.47,0,0,1,227.56,17.37Z"/><path class="cls-8" d="M228.51,36a17.24,17.24,0,0,1,5.91-7.25,14.49,14.49,0,0,1,8.38-2.58,13.7,13.7,0,0,1,7.9,2.28,15.44,15.44,0,0,1,2.45,2.06,1.47,1.47,0,0,0,2.55-1v-1.2a1.47,1.47,0,0,1,1.47-1.48H260a1.47,1.47,0,0,1,1.47,1.48V65.73A1.47,1.47,0,0,1,260,67.2h-2.87a1.47,1.47,0,0,1-1.47-1.47V64.38a1.47,1.47,0,0,0-2.55-1,16.17,16.17,0,0,1-2.54,2.16,13.56,13.56,0,0,1-7.87,2.32,14.06,14.06,0,0,1-8.35-2.65,17.78,17.78,0,0,1-5.88-7.43,26.37,26.37,0,0,1-2.15-10.9A25.78,25.78,0,0,1,228.51,36Zm25.6,3a12.29,12.29,0,0,0-4.26-5.19,10.65,10.65,0,0,0-11.79,0,12.26,12.26,0,0,0-4.24,5.16,18.62,18.62,0,0,0-1.58,7.94,19.09,19.09,0,0,0,1.58,8.06,12.41,12.41,0,0,0,4.24,5.23,10.25,10.25,0,0,0,5.88,1.8,10.39,10.39,0,0,0,5.91-1.8,12.23,12.23,0,0,0,4.26-5.23,18.75,18.75,0,0,0,1.59-8A18.55,18.55,0,0,0,254.11,39Z"/><path class="cls-8" d="M318.11,28.08a13.24,13.24,0,0,1,5,5.85,22.26,22.26,0,0,1,1.83,9.5v22.3a1.47,1.47,0,0,1-1.47,1.47h-2.75a1.47,1.47,0,0,1-1.47-1.47V44.38q0-6-2.56-9.23a8.37,8.37,0,0,0-6.92-3.21,8.65,8.65,0,0,0-7.14,3.35Q300,38.65,300,45V65.73a1.47,1.47,0,0,1-1.47,1.47h-2.75a1.47,1.47,0,0,1-1.47-1.47V44.38q0-6-2.56-9.23a8.39,8.39,0,0,0-6.92-3.21,8.67,8.67,0,0,0-7.15,3.35Q275,38.65,275,45V65.73a1.47,1.47,0,0,1-1.47,1.47h-2.81a1.47,1.47,0,0,1-1.47-1.47V28.34a1.47,1.47,0,0,1,1.47-1.48h2.81A1.47,1.47,0,0,1,275,28.34h0a1.47,1.47,0,0,0,2.45,1.09,11.92,11.92,0,0,1,2.13-1.61,12.3,12.3,0,0,1,6.36-1.69,13.4,13.4,0,0,1,7.71,2.28,12.7,12.7,0,0,1,3.71,4,1.47,1.47,0,0,0,2.52,0,12.36,12.36,0,0,1,3.57-3.9,12.66,12.66,0,0,1,7.46-2.35A13.42,13.42,0,0,1,318.11,28.08Z"/><path class="cls-8" d="M331.55,19a4.78,4.78,0,0,1-1.14-3.24,4.82,4.82,0,0,1,1.14-3.24,3.55,3.55,0,0,1,2.78-1.32A3.4,3.4,0,0,1,337,12.51a4.9,4.9,0,0,1,1.11,3.24A4.86,4.86,0,0,1,337,19a3.41,3.41,0,0,1-2.69,1.33A3.56,3.56,0,0,1,331.55,19Zm5.56,9.35V65.73a1.47,1.47,0,0,1-1.47,1.47h-2.81a1.47,1.47,0,0,1-1.47-1.47V28.34a1.47,1.47,0,0,1,1.47-1.48h2.81A1.47,1.47,0,0,1,337.11,28.34Z"/><path class="cls-8" d="M350.67,14.21V65.73a1.47,1.47,0,0,1-1.48,1.47h-2.81a1.47,1.47,0,0,1-1.47-1.47V14.21a1.47,1.47,0,0,1,1.47-1.48h2.81A1.48,1.48,0,0,1,350.67,14.21Z"/><path class="cls-8" d="M386.61,28.83,366.79,85.2a1.49,1.49,0,0,1-1.39,1h-2.83a1.47,1.47,0,0,1-1.38-2l6-17a1.47,1.47,0,0,0,0-1L354,28.82a1.47,1.47,0,0,1,1.39-2h3.25a1.47,1.47,0,0,1,1.39,1l9.14,27.45a1.47,1.47,0,0,0,2.79,0l9-27.44a1.47,1.47,0,0,1,1.39-1h2.8A1.48,1.48,0,0,1,386.61,28.83Z"/><path class="cls-9" d="M48.84,74.05a31.68,31.68,0,0,1-39.9-15.3,31.64,31.64,0,0,1,2.2-46.14,31.51,31.51,0,0,0-6.36,19A31.08,31.08,0,0,0,5.93,40.1a31.51,31.51,0,0,0,9.24,15A31.65,31.65,0,0,0,44.31,74.37,30.77,30.77,0,0,0,48.84,74.05Z"/><path class="cls-10" d="M72.8,52.77A37.85,37.85,0,0,1,51.05,73.65h0c-.72.16-1.45.29-2.2.4a30.77,30.77,0,0,1-4.53.32A31.65,31.65,0,0,1,15.17,55.09a31.66,31.66,0,0,0,41.26,1.08l.5-.42a31.88,31.88,0,0,0,6.91-8.29,12.92,12.92,0,0,1,4.76,1.46,11.27,11.27,0,0,1,2.46,1.79A12.21,12.21,0,0,1,72.8,52.77Z"/><path class="cls-11" d="M14.83,22.25A31.83,31.83,0,0,0,12.67,33.8a32.65,32.65,0,0,0,.3,4.46A31.67,31.67,0,0,0,32.07,63,31.65,31.65,0,0,1,5.93,40.1a31.08,31.08,0,0,1-1.15-8.46A31.67,31.67,0,0,1,48.66,2.45a32.76,32.76,0,0,0-4.35-.3,31.67,31.67,0,0,0-29.48,20.1Z"/><path class="cls-12" d="M69.41,17.23a10.94,10.94,0,0,1-2.7,3.14l-.55.41a16.39,16.39,0,0,1-5.58,2.43c-.2-.23-.41-.45-.62-.66a31.62,31.62,0,0,0-22.71-9.61,32.2,32.2,0,0,0-4.53.33A31.68,31.68,0,0,0,13,38.26a32.65,32.65,0,0,1-.3-4.46A31.63,31.63,0,0,1,44.31,2.15a32.76,32.76,0,0,1,4.35.3,28.79,28.79,0,0,1,3.63.73A37.88,37.88,0,0,1,69.41,17.23Z"/><path class="cls-13" d="M63.84,47.46a31.88,31.88,0,0,1-6.91,8.29l-.5.42A31.68,31.68,0,0,1,32.07,63,31.67,31.67,0,0,1,13,38.26a31.68,31.68,0,0,1,19.75-25,32.2,32.2,0,0,1,4.53-.33A31.62,31.62,0,0,1,60,22.55c.21.21.42.43.62.66a2.61,2.61,0,0,1-.27.06,31.09,31.09,0,0,1-6.86.76,21.06,21.06,0,1,0-3.2,30.46,21.12,21.12,0,0,0,5.55-6.38,25.13,25.13,0,0,1,5.66-.77A15.75,15.75,0,0,1,63.84,47.46Z"/></g></g></svg>